<svg xmlns="http://www.w3.org/2000/svg" viewBox="0 0 1284.24 1286.23"><defs><style>.cls-1{fill:#fff;}.cls-2{fill:#cf7c29;}.cls-3{fill:#231f20;}.cls-4{fill:#ed99c2;}.cls-5,.cls-6,.cls-7,.cls-8{fill:none;stroke-linecap:round;stroke-linejoin:round;stroke-width:12px;}.cls-5{stroke:#fff;}.cls-6{stroke:#58c2ac;}.cls-7{stroke:#844e20;}.cls-8{stroke:#f5ed62;}.cls-9{fill:#848484;opacity:0.27;}</style></defs><title>donat</title><g id="Layer_2" data-name="Layer 2"><g id="Layer_2-2" data-name="Layer 2"><path class="cls-1" d="M643.11,20A620.28,620.28,0,0,1,1005.8,136.4a129.11,129.11,0,0,0-42.63,151.94c1.34,3.33,2.84,6.55,4.43,9.71A180,180,0,0,0,1091,599.16,128.95,128.95,0,0,0,1264.24,693c-25.41,320.82-293.78,573.25-621.13,573.25C299,1266.23,20,987.25,20,643.11S299,20,643.11,20m621.13,673h0M643.11,0A640.2,640.2,0,0,0,283.53,109.85a645,645,0,0,0-233,282.93,642.28,642.28,0,0,0,59.3,609.92,645,645,0,0,0,282.93,233,643.77,643.77,0,0,0,827.67-309A637.72,637.72,0,0,0,1284.14,695a18.67,18.67,0,0,0,.1-2,20,20,0,0,0-19.7-20h-1a19.88,19.88,0,0,0-7,1.52,109,109,0,0,1-140.39-60.86,109.83,109.83,0,0,1-5.62-18.6A20,20,0,0,0,1092,579.19,160,160,0,0,1,982.38,311.53a20,20,0,0,0,3.09-22.46c-1.51-3-2.74-5.69-3.76-8.22a109,109,0,0,1,36-128.39,20,20,0,0,0-.27-32.31A640.27,640.27,0,0,0,643.11,0Z"/><path class="cls-2" d="M643.11,1258.7A615.74,615.74,0,0,1,403.5,75.91a616.47,616.47,0,0,1,586.27,58.47,3,3,0,0,1,.3,4.72,129.94,129.94,0,0,0-34.15,145.57c1.24,3.06,2.7,6.25,4.46,9.76a3,3,0,0,1-.46,3.37,182,182,0,0,0,124.76,304.5,3,3,0,0,1,2.77,2.38,131.65,131.65,0,0,0,6.69,22.08,129.51,129.51,0,0,0,157.57,75.58,3.26,3.26,0,0,1,.87-.12,3,3,0,0,1,3,3.3c-15.19,151-85.64,290.55-198.36,393.09A614.11,614.11,0,0,1,643.11,1258.7Zm-1-804.75C538,454,453.27,538.67,453.27,642.8S538,831.66,642.12,831.66,831,746.94,831,642.8,746.25,454,642.12,454Z"/><path class="cls-3" d="M643.11,30.53a609.71,609.71,0,0,1,345,106.33A132.7,132.7,0,0,0,953.14,285.8c1.39,3.42,2.93,6.74,4.56,10A185,185,0,0,0,1084.52,605.3a132.55,132.55,0,0,0,168.06,99.92c-31.13,309.15-292.11,550.48-609.47,550.48-338.32,0-612.58-274.27-612.58-612.59S304.79,30.53,643.11,30.53m-1,804.13c106,0,191.85-85.9,191.85-191.86S748.08,451,642.12,451,450.27,536.85,450.27,642.8s85.89,191.86,191.85,191.86m610.46-129.44h0M643.11,24.53A615.63,615.63,0,0,0,297.25,130.18,620.44,620.44,0,0,0,73.14,402.33a617.74,617.74,0,0,0,57,586.64,620.22,620.22,0,0,0,272.15,224.11,618,618,0,0,0,656.89-112.25c113.22-103,184-243.2,199.31-394.82a7,7,0,0,0,0-.79,6,6,0,0,0-5.91-6h-.34a5.86,5.86,0,0,0-1.62.29,126.62,126.62,0,0,1-153.79-73.87,128,128,0,0,1-6.53-21.57,6,6,0,0,0-5.55-4.76A179,179,0,0,1,962.13,299.82a6,6,0,0,0,.93-6.73c-1.73-3.44-3.15-6.56-4.36-9.54a126.71,126.71,0,0,1,33.36-142.2,6,6,0,0,0-.6-9.45A615.26,615.26,0,0,0,643.11,24.53Zm-1,804.13a185.32,185.32,0,1,1,72.34-14.61,184.7,184.7,0,0,1-72.34,14.61Z"/><path class="cls-1" d="M643,482.8a160,160,0,1,1-113.14,46.87A159,159,0,0,1,643,482.8m0-20a180,180,0,1,0,180,180,180,180,0,0,0-180-180Z"/><path class="cls-4" d="M1066.19,642.53c1-12.51,3.27-25.26,3.27-25.26.77-4.39,1.64-8.66,2.58-12.83a185,185,0,0,1-124-297C929.93,273,929.7,243.73,892.2,218.81a86.28,86.28,0,0,0-22-10.88C844.3,199.7,830,203.51,814,200.67c-30.85-5.45-34.32-34.09-64.71-57.88-24.29-19-53.49-21.71-110.91-26.32-73-5.87-109.46-8.8-156.42,6.09-24.73,7.83-95.32,34.15-141.61,99.7-26.34,37.3-20.61,53-49.13,76.59-36.59,30.22-64.24,19.41-97.12,52.2-25.75,25.68-33.48,56.91-36.5,69.08-12.61,51,9,72.47,5,124.37-3.56,46.4-22.56,52-40.05,104.17-20.93,62.45-30.24,163.5,18.1,230.22,30.85,42.58,55.22,29.81,119,80.91,74.19,59.39,70.26,99.84,122.07,153.68,85.66,89,247.12,135.07,354.49,86,67.55-30.86,53.47-71.84,163.55-140.21,66.17-41.11,88.49-37,141.15-80,50.53-41.25,106.64-87.06,105.09-144.3C1144.24,768.54,1064.17,667.44,1066.19,642.53ZM643,835c-106,0-191.85-85.9-191.85-191.86S537,451.26,643,451.26s191.85,85.9,191.85,191.85S748.94,835,643,835Z"/><path class="cls-5" d="M707.57,113.25c-23.18-2.14-318.79-24.51-497.47,201.64C90.46,466.32,94.52,638.93,95.66,668.43c4.39,114.43,44.72,200.42,69.61,244.79"/><line class="cls-5" x1="749.53" y1="118.56" x2="837.62" y2="138.98"/><line class="cls-6" x1="231.42" y1="551.09" x2="260.95" y2="616.28"/><line class="cls-7" x1="314.8" y1="810.31" x2="356.49" y2="821.25"/><line class="cls-6" x1="498.92" y1="1024.48" x2="549.3" y2="994.95"/><line class="cls-8" x1="891.49" y1="899.42" x2="856.75" y2="960.21"/><line class="cls-6" x1="762.95" y1="281.04" x2="793.58" y2="310.57"/><line class="cls-8" x1="538.88" y1="308.83" x2="537.14" y2="367.89"/><line class="cls-7" x1="314.8" y1="414.79" x2="359.96" y2="414.79"/><line class="cls-7" x1="947.07" y1="699.66" x2="983.55" y2="723.98"/><line class="cls-7" x1="662.2" y1="1146.07" x2="707.57" y2="1113.07"/><line class="cls-8" x1="860.22" y1="487.75" x2="884.54" y2="512.45"/><line class="cls-8" x1="450.27" y1="834.66" x2="475.47" y2="868.15"/><line class="cls-7" x1="382.55" y1="1029.69" x2="379.07" y2="967.16"/><line class="cls-7" x1="691.73" y1="929.82" x2="740.37" y2="913.22"/><line class="cls-6" x1="1047.82" y1="899.42" x2="1051.29" y2="834.97"/><line class="cls-7" x1="380.81" y1="604.13" x2="408.6" y2="551.09"/><line class="cls-8" x1="524.11" y1="168.14" x2="594.46" y2="176.82"/><line class="cls-8" x1="175.84" y1="703.14" x2="175.84" y2="756.98"/><line class="cls-7" x1="670.08" y1="399.18" x2="697.88" y2="346.14"/><path class="cls-9" d="M1084.52,605.3C1060.1,680.3,1001,826,861.18,952.45c-218.81,198-478.28,207-547.64,207.12,43.7,27.78,115.72,66.13,211.45,84.74,243,47.24,430.45-73.17,457.93-91.44,133.92-89,195.56-207.23,217.37-254.84a612.51,612.51,0,0,0,52.29-192.81c-7.34,2.29-60.17,17.79-110.55-14.7C1096.33,661.06,1086.18,613.74,1084.52,605.3Z"/></g></g></svg>