<svg xmlns="http://www.w3.org/2000/svg" viewBox="0 0 3204.74 721.53"><defs><style>.cls-1{fill:#fff;}.cls-2{fill:#cf7c29;}.cls-3{fill:#231f20;}.cls-4{fill:#ed99c2;}.cls-5,.cls-6,.cls-7,.cls-8{fill:none;stroke-linecap:round;stroke-linejoin:round;stroke-width:12px;}.cls-5{stroke:#fff;}.cls-6{stroke:#58c2ac;}.cls-7{stroke:#844e20;}.cls-8{stroke:#f5ed62;}.cls-9{fill:#848484;opacity:0.27;}.cls-10{fill:#262262;}</style></defs><title>logo lengkap</title><g id="Layer_2" data-name="Layer 2"><g id="Layer_2-2" data-name="Layer 2"><path class="cls-1" d="M360.76,20A339.22,339.22,0,0,1,559.11,83.66a70.61,70.61,0,0,0-23.32,83.09c.74,1.82,1.56,3.58,2.43,5.31a98.43,98.43,0,0,0,67.47,164.67A70.53,70.53,0,0,0,700.44,388c-13.9,175.44-160.66,313.49-339.68,313.49C172.57,701.53,20,549,20,360.76S172.57,20,360.76,20M700.44,388h0M360.76,0A360.65,360.65,0,0,0,105.67,615.86,360.76,360.76,0,0,0,720.34,390a18.49,18.49,0,0,0,.1-2,20,20,0,0,0-19.65-20h-1.11a19.93,19.93,0,0,0-6.88,1.5,50.53,50.53,0,0,1-64.93-28.3,51.13,51.13,0,0,1-2.61-8.63,20,20,0,0,0-18.51-15.86A78.44,78.44,0,0,1,553,185.54a20,20,0,0,0,3.1-22.46c-.72-1.42-1.29-2.67-1.76-3.83A50.58,50.58,0,0,1,571,99.71a20,20,0,0,0-.27-32.31A358.28,358.28,0,0,0,360.76,0Z"/><path class="cls-2" d="M360.76,698.77a338,338,0,0,1-239-577A338,338,0,0,1,551.11,81.43a3,3,0,0,1,.3,4.72,69.68,69.68,0,0,0-18.32,78.08c.66,1.64,1.44,3.35,2.39,5.24a3,3,0,0,1-.46,3.37,98.18,98.18,0,0,0,67.29,164.25,3,3,0,0,1,2.78,2.38,70,70,0,0,0,3.59,11.84,69.45,69.45,0,0,0,84.52,40.54,3.13,3.13,0,0,1,.86-.12,3,3,0,0,1,1.91.68,3,3,0,0,1,1.08,2.62A338,338,0,0,1,360.76,698.77Zm-.54-440.09A101.92,101.92,0,1,0,462.14,360.59,102,102,0,0,0,360.22,258.68Z"/><path class="cls-3" d="M360.76,25.76A333.44,333.44,0,0,1,549.42,83.91a72.58,72.58,0,0,0-19.11,81.45c.76,1.87,1.6,3.68,2.49,5.46a101.18,101.18,0,0,0,69.35,169.26,73.3,73.3,0,0,0,3.75,12.36,72.48,72.48,0,0,0,88.16,42.29c-17,169.06-159.74,301-333.3,301-185,0-335-150-335-335s150-335,335-335m-.54,439.75A104.92,104.92,0,1,0,255.3,360.59,104.91,104.91,0,0,0,360.22,465.51m333.84-70.78h0m-333.31-375A341.09,341.09,0,0,0,228,675,341.12,341.12,0,0,0,700,395.52a5.16,5.16,0,0,0,.06-.79,6,6,0,0,0-5.94-6h-.29a5.94,5.94,0,0,0-1.64.29,66.52,66.52,0,0,1-80.74-38.83A67.1,67.1,0,0,1,608,338.85a6,6,0,0,0-5.55-4.76,95.18,95.18,0,0,1-65.25-159.23,6,6,0,0,0,.93-6.74c-.91-1.81-1.66-3.45-2.29-5A66.7,66.7,0,0,1,553.4,88.39a6,6,0,0,0-.6-9.44,339.22,339.22,0,0,0-192-59.19Zm-.54,439.75a98.92,98.92,0,1,1,98.92-98.92,99,99,0,0,1-98.92,98.92Z"/><path class="cls-1" d="M360.69,282.16a78.44,78.44,0,1,1-78.44,78.43,78.52,78.52,0,0,1,78.44-78.43m0-20a98.44,98.44,0,1,0,98.44,98.43,98.44,98.44,0,0,0-98.44-98.43Z"/><path class="cls-4" d="M592.13,360.44c.56-6.84,1.79-13.81,1.79-13.81.42-2.4.9-4.74,1.41-7a101.16,101.16,0,0,1-67.8-162.4c-9.92-18.88-10-34.86-30.55-48.48a47.26,47.26,0,0,0-12-6c-14.18-4.5-22-2.41-30.75-4-16.87-3-18.77-18.64-35.39-31.65-13.28-10.4-29.25-11.87-60.65-14.4-39.91-3.2-59.86-4.81-85.55,3.33-13.52,4.29-52.12,18.68-77.44,54.53-14.4,20.4-11.27,29-26.87,41.88-20,16.53-35.13,10.62-53.11,28.55-14.08,14-18.31,31.13-20,37.78-6.9,27.87,4.91,39.63,2.74,68-1.94,25.37-12.34,28.42-21.9,57C64.64,398,59.55,453.21,86,489.7,102.86,513,116.18,506,151.09,534c40.57,32.48,38.42,54.6,66.75,84,46.85,48.68,135.14,73.87,193.87,47,36.93-16.87,29.23-39.28,89.43-76.67,36.19-22.48,48.4-20.24,77.2-43.75C606,522.05,636.65,497,635.8,465.7,634.82,429.35,591,374.07,592.13,360.44ZM360.69,465.68A104.92,104.92,0,1,1,465.61,360.76,104.92,104.92,0,0,1,360.69,465.68Z"/><path class="cls-5" d="M396,71c-12.67-1.17-174.33-13.41-272,110.27C58.53,264.08,60.75,358.48,61.37,374.61A298,298,0,0,0,99.44,508.48"/><line class="cls-5" x1="418.96" y1="73.9" x2="467.13" y2="85.07"/><line class="cls-6" x1="135.62" y1="310.44" x2="151.77" y2="346.09"/><line class="cls-7" x1="181.22" y1="452.2" x2="204.02" y2="458.18"/><line class="cls-6" x1="281.91" y1="569.32" x2="309.46" y2="553.18"/><line class="cls-8" x1="496.59" y1="500.93" x2="477.6" y2="534.18"/><line class="cls-6" x1="426.3" y1="162.76" x2="443.05" y2="178.91"/><line class="cls-8" x1="303.76" y1="177.96" x2="302.81" y2="210.25"/><line class="cls-7" x1="181.22" y1="235.9" x2="205.92" y2="235.9"/><line class="cls-7" x1="526.99" y1="391.69" x2="546.94" y2="404.99"/><line class="cls-7" x1="371.2" y1="635.82" x2="396.01" y2="617.77"/><line class="cls-8" x1="479.5" y1="275.8" x2="492.79" y2="289.31"/><line class="cls-8" x1="255.3" y1="465.51" x2="269.09" y2="483.83"/><line class="cls-7" x1="218.27" y1="572.17" x2="216.37" y2="537.98"/><line class="cls-7" x1="387.35" y1="517.55" x2="413.95" y2="508.48"/><line class="cls-6" x1="582.09" y1="500.93" x2="583.99" y2="465.68"/><line class="cls-7" x1="217.32" y1="339.44" x2="232.51" y2="310.44"/><line class="cls-8" x1="295.68" y1="101.01" x2="334.16" y2="105.76"/><line class="cls-8" x1="105.22" y1="393.59" x2="105.22" y2="423.04"/><line class="cls-7" x1="375.51" y1="227.36" x2="390.71" y2="198.36"/><path class="cls-9" d="M602.15,340.08C588.8,381.1,556.47,460.76,480,529.93,360.35,638.21,218.46,643.1,180.53,643.2a334.91,334.91,0,0,0,115.63,46.34c132.88,25.84,235.41-40,250.43-50,73.24-48.7,106.95-113.33,118.88-139.37a334.92,334.92,0,0,0,28.59-105.44c-4,1.25-32.9,9.72-60.45-8C608.62,370.58,603.06,344.7,602.15,340.08Z"/><path class="cls-10" d="M1006.36,242c-28.4-16.4-59.6-25.2-91.2-27.6v256h-29.6v-256A208,208,0,0,0,794,242l-10.8-23.2C819.57,197.17,860,188,900,188s81.2,9.2,117.2,30.8Z"/><path class="cls-10" d="M1188.36,419.56l16,18.4c-18.8,22.4-47.6,34.4-80.8,34.4-65.59,0-110.79-44.8-110.79-107.2s43.6-106.79,104-106.79c56.39,0,98.79,41.19,100.79,100.39l-172.79,33.6c10.4,34,40,54.8,79.19,54.8C1150,447.16,1172.76,438,1188.36,419.56Zm-148-56.4a61.93,61.93,0,0,0,.4,8.8l148.39-28.8c-6-34.4-33.6-60.4-72.39-60.4C1072,282.76,1040.37,315.56,1040.37,363.16Z"/><path class="cls-10" d="M1622.76,348.36v122h-28.4V351.16c0-44.4-22.4-67.2-60.4-67.2-43.2,0-70.4,28-70.4,76v110.4h-28.4V351.16c0-44.4-22.4-67.2-60.8-67.2-42.8,0-70.4,28-70.4,76v110.4h-28.4V260h27.2v38.4c14.8-25.19,42-40,77.2-40,34.8,0,62,14.8,74.8,44.39,15.2-27.19,45.2-44.39,83.2-44.39C1589.16,258.37,1622.76,288,1622.76,348.36Z"/><path class="cls-10" d="M1913.15,365.16c0,64-44.8,107.2-104.79,107.2-33.6,0-62.4-14.4-80-41.6V548H1700V260h27.2v41.6c17.2-28,46.4-43.19,81.2-43.19C1868.35,258.37,1913.15,301.56,1913.15,365.16Zm-28.4,0c0-48.8-34-82-78.39-82-44.8,0-78.4,33.2-78.4,82,0,49.2,33.6,82,78.4,82C1850.76,447.16,1884.75,414.36,1884.75,365.16Z"/><path class="cls-10" d="M1971.15,412V173.57h28.4v236c0,24.8,11.6,38.4,35.2,38.4,7.6,0,14.8-1.6,19.2-3.6l2,23.6a80.08,80.08,0,0,1-25.6,4.4C1992,472.36,1971.15,449.56,1971.15,412Z"/><path class="cls-10" d="M2282.75,260v210.4h-27.2v-41.6c-17.2,28.4-46.4,43.6-81.2,43.6-60,0-104.8-43.6-104.8-107.2s44.8-106.79,104.8-106.79c33.6,0,62.4,14.39,80,41.59V260Zm-28,105.2c0-49.2-33.6-82-78-82-44.8,0-78.4,32.8-78.4,82s33.6,82,78.4,82C2221.15,447.16,2254.75,414.36,2254.75,365.16Z"/><path class="cls-10" d="M2465.55,457.56c-10.8,10-27.6,14.8-44,14.8-39.6,0-61.6-22.4-61.6-61.2V214h28.4v46H2452v24h-63.6v125.6c0,24.8,12.4,38.4,36,38.4,12,0,23.2-3.6,31.2-10.8Z"/><path class="cls-10" d="M2488.35,365.16c0-62.4,45.6-106.79,107.19-106.79s106.8,44.39,106.8,106.79-45.2,107.2-106.8,107.2S2488.35,427.56,2488.35,365.16Zm185.19,0c0-49.2-33.2-82-78-82s-78.39,32.8-78.39,82,33.6,82,78.39,82S2673.54,414.36,2673.54,365.16Z"/><path class="cls-10" d="M2739.15,365.16c0-62.4,45.59-106.79,107.19-106.79s106.8,44.39,106.8,106.79-45.2,107.2-106.8,107.2S2739.15,427.56,2739.15,365.16Zm185.19,0c0-49.2-33.2-82-78-82s-78.4,32.8-78.4,82,33.6,82,78.4,82S2924.34,414.36,2924.34,365.16Z"/><path class="cls-10" d="M3204.74,348.36v122h-28.4V351.16c0-44.4-23.2-67.2-63.2-67.2-45.2,0-73.6,28-73.6,76v110.4h-28.39V260h27.19v38.8c15.2-25.59,43.6-40.39,80-40.39C3169.54,258.37,3204.74,288,3204.74,348.36Z"/></g></g></svg>